<svg width="24" height="25" viewBox="0 0 24 25" fill="none" xmlns="http://www.w3.org/2000/svg">
<path d="M17 21.7949H7C3.35 21.7949 1.25 19.6949 1.25 16.0449V9.04492C1.25 5.39492 3.35 3.29492 7 3.29492H17C20.65 3.29492 22.75 5.39492 22.75 9.04492V16.0449C22.75 19.6949 20.65 21.7949 17 21.7949ZM7 4.79492C4.14 4.79492 2.75 6.18492 2.75 9.04492V16.0449C2.75 18.9049 4.14 20.2949 7 20.2949H17C19.86 20.2949 21.25 18.9049 21.25 16.0449V9.04492C21.25 6.18492 19.86 4.79492 17 4.79492H7Z" fill="#171717"/>
<path d="M11.9998 13.4149C11.1598 13.4149 10.3098 13.1549 9.65978 12.6249L6.52978 10.1249C6.20978 9.86489 6.14978 9.39489 6.40978 9.07489C6.66978 8.75489 7.13978 8.6949 7.45978 8.9549L10.5898 11.4549C11.3498 12.0649 12.6398 12.0649 13.3998 11.4549L16.5298 8.9549C16.8498 8.6949 17.3298 8.74489 17.5798 9.07489C17.8398 9.39489 17.7898 9.87489 17.4598 10.1249L14.3298 12.6249C13.6898 13.1549 12.8398 13.4149 11.9998 13.4149Z" fill="#171717"/>
</svg>
