<?xml version="1.0" encoding="UTF-8"?>
<svg xmlns="http://www.w3.org/2000/svg" id="Layer_1" data-name="Layer 1" viewBox="0 0 24 24">
  <path d="M12,18.887c-.051,0-.103-.008-.152-.023l-.682-.217c-.128-.041-3.18-1.025-6.692-3.422-1.185-.809-2.29-1.621-3.285-2.412-.216-.172-.252-.487-.08-.703,.171-.216,.486-.252,.702-.08,.977,.776,2.062,1.574,3.227,2.369,3.392,2.315,6.309,3.256,6.431,3.295l.531,.169,.53-.169c.123-.039,3.04-.98,6.432-3.295,1.167-.797,2.253-1.594,3.227-2.369,.217-.171,.531-.137,.703,.08,.172,.216,.136,.531-.08,.703-.993,.79-2.099,1.601-3.285,2.412-3.513,2.397-6.564,3.381-6.693,3.422l-.682,.217c-.049,.016-.101,.023-.152,.023Z"/>
  <path d="M12,22.773c-.051,0-.103-.008-.152-.023l-.682-.217c-.326-.105-3.272-1.088-6.692-3.422-1.179-.805-2.284-1.617-3.285-2.412-.216-.172-.252-.486-.081-.703,.171-.216,.487-.251,.703-.081,.982,.781,2.068,1.578,3.227,2.369,3.36,2.293,6.309,3.256,6.433,3.295l.529,.168,.53-.169c.123-.039,3.071-1.002,6.432-3.295,1.161-.793,2.247-1.59,3.227-2.369,.217-.169,.531-.136,.703,.081s.136,.531-.08,.703c-.999,.793-2.104,1.604-3.285,2.412-3.42,2.334-6.366,3.317-6.691,3.422l-.684,.218c-.049,.016-.101,.023-.152,.023Z"/>
  <path d="M12,15.31c-.051,0-.103-.008-.152-.023-.116-.037-2.871-.928-6.108-3.138-2.97-2.027-4.516-3.454-4.58-3.513-.102-.095-.16-.228-.16-.367s.058-.272,.16-.367c.064-.06,1.611-1.486,4.581-3.514,3.237-2.21,5.992-3.101,6.108-3.138,.099-.031,.205-.031,.304,0,.116,.037,2.871,.928,6.108,3.138,2.97,2.027,4.516,3.454,4.58,3.514,.103,.094,.16,.227,.16,.366s-.058,.272-.16,.367c-.064,.06-1.61,1.486-4.58,3.513-3.237,2.21-5.992,3.101-6.108,3.138-.049,.016-.101,.023-.152,.023ZM2.258,8.269c.641,.547,2.01,1.664,4.046,3.054,2.69,1.836,5.082,2.742,5.696,2.959,.614-.217,3.007-1.123,5.695-2.959,2.037-1.39,3.406-2.506,4.047-3.054-.641-.547-2.01-1.665-4.047-3.054-2.688-1.836-5.081-2.742-5.695-2.959-.614,.217-3.006,1.123-5.696,2.959-2.036,1.39-3.405,2.507-4.046,3.054Z"/>
</svg>
